<svg width="135" height="45" viewBox="0 0 135 45" fill="none" xmlns="http://www.w3.org/2000/svg">
<path d="M4.70959 14.7458V11.5331C4.70959 11.0219 4.73392 10.523 4.7826 10.0362C4.84345 9.54943 4.97123 9.11741 5.16594 8.74016C5.36065 8.35074 5.64055 8.04042 6.00563 7.8092C6.37072 7.56581 6.86358 7.44411 7.48422 7.44411C8.0927 7.44411 8.57948 7.56581 8.94456 7.8092C9.30964 8.04042 9.58346 8.35074 9.766 8.74016C9.96071 9.11741 10.0824 9.54943 10.1311 10.0362C10.1919 10.523 10.2224 11.0219 10.2224 11.5331V14.7458H11.7192C12.0356 14.7458 12.352 14.764 12.6684 14.8006C12.9848 14.8249 13.2647 14.9101 13.5081 15.0561C13.7637 15.2021 13.9645 15.4212 14.1105 15.7133C14.2687 16.0053 14.3478 16.413 14.3478 16.9363C14.3478 17.4352 14.2687 17.8308 14.1105 18.1228C13.9645 18.4149 13.7637 18.6339 13.5081 18.78C13.2647 18.926 12.9848 19.0234 12.6684 19.072C12.352 19.1085 12.0356 19.1268 11.7192 19.1268H10.2224V25.5158C10.2224 25.7592 10.2284 26.0208 10.2406 26.3007C10.2649 26.5684 10.3319 26.8179 10.4414 27.0491C10.5509 27.2803 10.7152 27.4751 10.9343 27.6333C11.1533 27.7793 11.4636 27.8523 11.8652 27.8523C12.3033 27.8523 12.6745 27.8888 12.9787 27.9618C13.2951 28.0227 13.5507 28.1383 13.7454 28.3087C13.9523 28.479 14.1044 28.7163 14.2018 29.0206C14.2991 29.3248 14.3478 29.7142 14.3478 30.1889C14.3478 30.6756 14.2322 31.0955 14.001 31.4484C13.7819 31.8013 13.4838 32.0934 13.1065 32.3246C12.7293 32.5558 12.2912 32.7262 11.7922 32.8357C11.2933 32.9452 10.77 33 10.2224 33C9.35832 33 8.61599 32.9087 7.99534 32.7262C7.38687 32.5436 6.87575 32.2881 6.46199 31.9595C6.0604 31.6188 5.73791 31.2172 5.49452 30.7547C5.2633 30.2801 5.08684 29.7508 4.96514 29.1666C4.85562 28.5825 4.7826 27.9558 4.74609 27.2864C4.72175 26.6049 4.70959 25.893 4.70959 25.1507V19.1268H3.68735C3.37094 19.1268 3.05454 19.1085 2.73813 19.072C2.43389 19.0234 2.16008 18.926 1.91669 18.78C1.6733 18.6339 1.47251 18.4149 1.3143 18.1228C1.16827 17.8308 1.09525 17.4352 1.09525 16.9363C1.09525 16.413 1.16827 16.0053 1.3143 15.7133C1.47251 15.4212 1.6733 15.2021 1.91669 15.0561C2.16008 14.9101 2.43389 14.8249 2.73813 14.8006C3.05454 14.764 3.37094 14.7458 3.68735 14.7458H4.70959ZM17.305 21.6094C17.305 20.4898 17.4571 19.5406 17.7613 18.7617C18.0656 17.9829 18.455 17.3318 18.9296 16.8085C19.4164 16.2852 19.9518 15.8776 20.536 15.5855C21.1323 15.2934 21.7164 15.0744 22.2884 14.9283C22.8604 14.7823 23.3897 14.691 23.8765 14.6545C24.3754 14.618 24.7649 14.5998 25.0448 14.5998C25.3247 14.5998 25.708 14.618 26.1948 14.6545C26.6816 14.691 27.1988 14.7823 27.7464 14.9283C28.3062 15.0744 28.866 15.2934 29.4258 15.5855C29.9977 15.8776 30.5089 16.2852 30.9591 16.8085C31.4216 17.3318 31.7988 17.9829 32.0909 18.7617C32.383 19.5406 32.529 20.4898 32.529 21.6094V26.1364C32.529 27.256 32.383 28.2052 32.0909 28.9841C31.7988 29.7629 31.4216 30.414 30.9591 30.9373C30.5089 31.4606 29.9977 31.8682 29.4258 32.1603C28.866 32.4524 28.3062 32.6714 27.7464 32.8175C27.1988 32.9635 26.6816 33.0548 26.1948 33.0913C25.708 33.1278 25.3247 33.146 25.0448 33.146C24.7649 33.146 24.3754 33.1278 23.8765 33.0913C23.3897 33.0548 22.8604 32.9635 22.2884 32.8175C21.7164 32.6714 21.1323 32.4524 20.536 32.1603C19.9518 31.8682 19.4164 31.4606 18.9296 30.9373C18.455 30.414 18.0656 29.7629 17.7613 28.9841C17.4571 28.2052 17.305 27.256 17.305 26.1364V21.6094ZM22.9273 27.4142C22.9395 27.7671 23.0246 28.0774 23.1828 28.3452C23.3167 28.5886 23.5236 28.8076 23.8035 29.0023C24.0956 29.1849 24.5093 29.2761 25.0448 29.2761C25.5559 29.2761 25.9453 29.1849 26.213 29.0023C26.4929 28.8076 26.6998 28.5886 26.8337 28.3452C26.9797 28.0774 27.0649 27.7671 27.0892 27.4142V20.8062C27.0649 20.4411 26.9797 20.1064 26.8337 19.8022C26.6998 19.5588 26.4929 19.3337 26.213 19.1268C25.9453 18.9078 25.5559 18.7982 25.0448 18.7982C24.5093 18.7982 24.0956 18.9078 23.8035 19.1268C23.5236 19.3337 23.3167 19.5588 23.1828 19.8022C23.0246 20.1064 22.9395 20.4411 22.9273 20.8062V27.4142ZM38.1513 40.3017C36.764 40.3017 35.7782 40.1009 35.1941 39.6993C34.61 39.3099 34.3179 38.7318 34.3179 37.9651C34.3179 37.5879 34.3666 37.2715 34.4639 37.0159C34.5735 36.7604 34.7195 36.5535 34.902 36.3953C35.0846 36.2371 35.2915 36.1215 35.5227 36.0485C35.7661 35.9876 36.0216 35.9572 36.2894 35.9572C36.4719 35.9572 36.6423 35.9633 36.8005 35.9754C36.9587 35.9876 37.0925 35.9937 37.2021 35.9937C37.4333 35.9937 37.6523 35.8537 37.8592 35.5738C38.0783 35.3061 38.2852 34.9654 38.4799 34.5516C38.6867 34.1378 38.8936 33.6937 39.1005 33.2191C39.3074 32.7444 39.5143 32.3063 39.7211 31.9047L39.4291 31.1746C39.0762 30.2862 38.705 29.3552 38.3156 28.3817C37.9262 27.396 37.5367 26.4041 37.1473 25.4063C36.7701 24.3962 36.3928 23.3922 36.0155 22.3943C35.6505 21.3964 35.3158 20.4289 35.0116 19.4919C34.8777 19.1025 34.7621 18.7191 34.6647 18.3419C34.5795 17.9646 34.537 17.5935 34.537 17.2284C34.537 16.8755 34.61 16.5469 34.756 16.2426C34.902 15.9384 35.1028 15.6768 35.3584 15.4577C35.614 15.2387 35.906 15.0683 36.2346 14.9466C36.5753 14.8127 36.9343 14.7458 37.3116 14.7458C37.6523 14.7458 37.9627 14.8188 38.2426 14.9648C38.5346 15.1109 38.7902 15.3117 39.0092 15.5672C39.2405 15.8228 39.4413 16.1149 39.6116 16.4434C39.782 16.772 39.928 17.1188 40.0497 17.4839L42.4958 25.1872L44.8323 17.4839C44.9419 17.1432 45.0818 16.8024 45.2522 16.4617C45.4225 16.1209 45.6233 15.8228 45.8546 15.5672C46.0858 15.2995 46.3474 15.0865 46.6395 14.9283C46.9316 14.758 47.2541 14.6728 47.607 14.6728C47.9599 14.6728 48.2945 14.7397 48.6109 14.8736C48.9395 15.0074 49.2194 15.1961 49.4506 15.4395C49.694 15.6707 49.8827 15.9506 50.0165 16.2791C50.1626 16.6077 50.2356 16.9606 50.2356 17.3379C50.2356 17.703 50.1869 18.0681 50.0895 18.4331C50.0044 18.7861 49.8948 19.139 49.761 19.4919L45.38 31.1016C45.1244 31.7587 44.8445 32.4402 44.5403 33.146C44.2482 33.864 43.9257 34.5638 43.5728 35.2453C43.2199 35.9268 42.8426 36.5717 42.441 37.1802C42.0394 37.7887 41.6135 38.3241 41.1632 38.7866C40.713 39.249 40.2323 39.6141 39.7211 39.8818C39.2222 40.1617 38.6989 40.3017 38.1513 40.3017Z" fill="#FF5B00"/>
<path d="M57.7198 19.5284C57.7198 19.7718 57.7989 19.9969 57.9571 20.2038C58.1153 20.4107 58.3283 20.6115 58.596 20.8062C58.8759 20.9887 59.1923 21.1713 59.5452 21.3538C59.9103 21.5364 60.2876 21.7189 60.677 21.9014C61.2733 22.1935 61.8818 22.5099 62.5024 22.8507C63.123 23.1792 63.6889 23.5687 64.2 24.0189C64.7112 24.4692 65.1249 24.9925 65.4413 25.5888C65.7699 26.1729 65.9342 26.8666 65.9342 27.6698C65.9342 28.3999 65.8247 29.0449 65.6056 29.6047C65.3987 30.1645 65.1188 30.6513 64.7659 31.0651C64.413 31.4666 63.9992 31.8013 63.5246 32.069C63.0622 32.3368 62.5693 32.5497 62.046 32.7079C61.5349 32.8661 61.0116 32.9757 60.4762 33.0365C59.9407 33.1095 59.4357 33.146 58.9611 33.146C58.024 33.146 57.2087 33.0669 56.515 32.9087C55.8214 32.7505 55.2251 32.5436 54.7261 32.2881C54.2272 32.0204 53.8134 31.7222 53.4848 31.3936C53.1684 31.0529 52.9189 30.7 52.7364 30.3349C52.5539 29.9698 52.4261 29.6108 52.3531 29.2579C52.28 28.8928 52.2435 28.5581 52.2435 28.2539C52.2435 27.5237 52.4443 26.9883 52.8459 26.6475C53.2597 26.3068 53.8864 26.1364 54.7261 26.1364C55.3346 26.1364 55.8335 26.3007 56.223 26.6293C56.6124 26.9579 56.8193 27.4872 56.8436 28.2174C56.8558 28.4608 56.9227 28.6555 57.0444 28.8015C57.1783 28.9476 57.3425 29.0693 57.5373 29.1666C57.7441 29.2518 57.9693 29.3127 58.2127 29.3492C58.4561 29.3735 58.6934 29.3857 58.9246 29.3857C59.3992 29.3857 59.7825 29.264 60.0746 29.0206C60.3788 28.765 60.5309 28.4364 60.5309 28.0349C60.5309 27.6941 60.4275 27.3777 60.2206 27.0856C60.0259 26.7814 59.7643 26.5015 59.4357 26.2459C59.1071 25.9904 58.7299 25.747 58.3039 25.5158C57.8902 25.2724 57.4642 25.029 57.0261 24.7856C56.4785 24.4935 55.9248 24.1832 55.365 23.8546C54.8174 23.5261 54.3184 23.161 53.8682 22.7594C53.4179 22.3578 53.0528 21.9075 52.7729 21.4086C52.493 20.8975 52.3531 20.3194 52.3531 19.6744C52.3531 18.7252 52.5052 17.9342 52.8094 17.3014C53.1258 16.6564 53.5822 16.1392 54.1785 15.7498C54.7748 15.3482 55.4989 15.0622 56.3507 14.8918C57.2148 14.7215 58.1944 14.6241 59.2897 14.5998H59.5817C60.5675 14.5998 61.4011 14.6849 62.0826 14.8553C62.7762 15.0257 63.3482 15.2508 63.7984 15.5307C64.2609 15.7985 64.6199 16.1027 64.8754 16.4434C65.1432 16.7842 65.3379 17.131 65.4596 17.4839C65.5934 17.8247 65.6725 18.1532 65.6969 18.4697C65.7334 18.7861 65.7516 19.0538 65.7516 19.2728C65.7516 19.6379 65.6725 19.9422 65.5143 20.1855C65.3683 20.4168 65.1675 20.6054 64.912 20.7514C64.6686 20.8853 64.3887 20.9826 64.0723 21.0435C63.7559 21.0922 63.4273 21.1226 63.0865 21.1348C62.7945 21.1348 62.5267 21.0861 62.2834 20.9887C62.0521 20.8914 61.8513 20.7697 61.681 20.6236C61.5106 20.4776 61.3767 20.3133 61.2794 20.1308C61.1942 19.9482 61.1516 19.7718 61.1516 19.6014C61.1273 19.139 60.9386 18.7861 60.5857 18.5427C60.245 18.2993 59.8251 18.1776 59.3262 18.1776C59.1193 18.1776 58.9185 18.2019 58.7238 18.2506C58.5412 18.2871 58.3709 18.3601 58.2127 18.4697C58.0666 18.567 57.9449 18.7009 57.8476 18.8712C57.7624 19.0416 57.7198 19.2607 57.7198 19.5284ZM71.9946 14.7458V11.5331C71.9946 11.0219 72.0189 10.523 72.0676 10.0362C72.1285 9.54943 72.2562 9.11741 72.4509 8.74016C72.6457 8.35074 72.9256 8.04042 73.2906 7.8092C73.6557 7.56581 74.1486 7.44411 74.7692 7.44411C75.3777 7.44411 75.8645 7.56581 76.2296 7.8092C76.5946 8.04042 76.8685 8.35074 77.051 8.74016C77.2457 9.11741 77.3674 9.54943 77.4161 10.0362C77.4769 10.523 77.5074 11.0219 77.5074 11.5331V14.7458H79.0042C79.3206 14.7458 79.637 14.764 79.9534 14.8006C80.2698 14.8249 80.5497 14.9101 80.7931 15.0561C81.0487 15.2021 81.2495 15.4212 81.3955 15.7133C81.5537 16.0053 81.6328 16.413 81.6328 16.9363C81.6328 17.4352 81.5537 17.8308 81.3955 18.1228C81.2495 18.4149 81.0487 18.6339 80.7931 18.78C80.5497 18.926 80.2698 19.0234 79.9534 19.072C79.637 19.1085 79.3206 19.1268 79.0042 19.1268H77.5074V25.5158C77.5074 25.7592 77.5134 26.0208 77.5256 26.3007C77.55 26.5684 77.6169 26.8179 77.7264 27.0491C77.8359 27.2803 78.0002 27.4751 78.2193 27.6333C78.4383 27.7793 78.7486 27.8523 79.1502 27.8523C79.5883 27.8523 79.9595 27.8888 80.2637 27.9618C80.5802 28.0227 80.8357 28.1383 81.0304 28.3087C81.2373 28.479 81.3894 28.7163 81.4868 29.0206C81.5841 29.3248 81.6328 29.7142 81.6328 30.1889C81.6328 30.6756 81.5172 31.0955 81.286 31.4484C81.0669 31.8013 80.7688 32.0934 80.3915 32.3246C80.0143 32.5558 79.5762 32.7262 79.0772 32.8357C78.5783 32.9452 78.055 33 77.5074 33C76.6433 33 75.901 32.9087 75.2803 32.7262C74.6719 32.5436 74.1608 32.2881 73.747 31.9595C73.3454 31.6188 73.0229 31.2172 72.7795 30.7547C72.5483 30.2801 72.3718 29.7508 72.2501 29.1666C72.1406 28.5825 72.0676 27.9558 72.0311 27.2864C72.0068 26.6049 71.9946 25.893 71.9946 25.1507V19.1268H70.9724C70.6559 19.1268 70.3395 19.1085 70.0231 19.072C69.7189 19.0234 69.4451 18.926 69.2017 18.78C68.9583 18.6339 68.7575 18.4149 68.5993 18.1228C68.4533 17.8308 68.3803 17.4352 68.3803 16.9363C68.3803 16.413 68.4533 16.0053 68.5993 15.7133C68.7575 15.4212 68.9583 15.2021 69.2017 15.0561C69.4451 14.9101 69.7189 14.8249 70.0231 14.8006C70.3395 14.764 70.6559 14.7458 70.9724 14.7458H71.9946ZM84.59 21.6094C84.59 20.4898 84.7421 19.5406 85.0463 18.7617C85.3506 17.9829 85.74 17.3318 86.2146 16.8085C86.7014 16.2852 87.2368 15.8776 87.821 15.5855C88.4173 15.2934 89.0014 15.0744 89.5734 14.9283C90.1454 14.7823 90.6747 14.691 91.1615 14.6545C91.6605 14.618 92.0499 14.5998 92.3298 14.5998C92.6097 14.5998 92.993 14.618 93.4798 14.6545C93.9666 14.691 94.4838 14.7823 95.0314 14.9283C95.5912 15.0744 96.151 15.2934 96.7108 15.5855C97.2827 15.8776 97.7939 16.2852 98.2441 16.8085C98.7066 17.3318 99.0838 17.9829 99.3759 18.7617C99.668 19.5406 99.814 20.4898 99.814 21.6094V26.1364C99.814 27.256 99.668 28.2052 99.3759 28.9841C99.0838 29.7629 98.7066 30.414 98.2441 30.9373C97.7939 31.4606 97.2827 31.8682 96.7108 32.1603C96.151 32.4524 95.5912 32.6714 95.0314 32.8175C94.4838 32.9635 93.9666 33.0548 93.4798 33.0913C92.993 33.1278 92.6097 33.146 92.3298 33.146C92.0499 33.146 91.6605 33.1278 91.1615 33.0913C90.6747 33.0548 90.1454 32.9635 89.5734 32.8175C89.0014 32.6714 88.4173 32.4524 87.821 32.1603C87.2368 31.8682 86.7014 31.4606 86.2146 30.9373C85.74 30.414 85.3506 29.7629 85.0463 28.9841C84.7421 28.2052 84.59 27.256 84.59 26.1364V21.6094ZM90.2123 27.4142C90.2245 27.7671 90.3096 28.0774 90.4678 28.3452C90.6017 28.5886 90.8086 28.8076 91.0885 29.0023C91.3806 29.1849 91.7943 29.2761 92.3298 29.2761C92.8409 29.2761 93.2303 29.1849 93.498 29.0023C93.7779 28.8076 93.9848 28.5886 94.1187 28.3452C94.2647 28.0774 94.3499 27.7671 94.3742 27.4142V20.8062C94.3499 20.4411 94.2647 20.1064 94.1187 19.8022C93.9848 19.5588 93.7779 19.3337 93.498 19.1268C93.2303 18.9078 92.8409 18.7982 92.3298 18.7982C91.7943 18.7982 91.3806 18.9078 91.0885 19.1268C90.8086 19.3337 90.6017 19.5588 90.4678 19.8022C90.3096 20.1064 90.2245 20.4411 90.2123 20.8062V27.4142ZM115.294 17.4839C115.294 18.4331 115.056 19.1268 114.582 19.5649C114.119 20.003 113.456 20.2221 112.592 20.2221C112.47 20.2221 112.294 20.2342 112.063 20.2586C111.844 20.2707 111.606 20.3194 111.351 20.4046C111.095 20.4776 110.833 20.5932 110.566 20.7514C110.31 20.8975 110.073 21.1043 109.854 21.3721C109.635 21.6276 109.458 21.9562 109.324 22.3578C109.191 22.7594 109.124 23.2401 109.124 23.7999V29.0206C109.124 29.5195 109.093 30.0063 109.032 30.4809C108.984 30.9555 108.862 31.3815 108.667 31.7587C108.473 32.1238 108.193 32.422 107.828 32.6532C107.463 32.8844 106.97 33 106.349 33C105.741 33 105.26 32.8844 104.907 32.6532C104.554 32.422 104.28 32.1238 104.085 31.7587C103.903 31.3815 103.781 30.9555 103.72 30.4809C103.672 30.0063 103.647 29.5195 103.647 29.0206V18.7982C103.647 18.2871 103.672 17.7942 103.72 17.3196C103.781 16.8329 103.903 16.4008 104.085 16.0236C104.28 15.6463 104.554 15.3482 104.907 15.1291C105.26 14.8979 105.741 14.7823 106.349 14.7823C106.97 14.7823 107.444 14.9223 107.773 15.2021C108.114 15.4699 108.363 15.8228 108.521 16.2609C108.679 16.6868 108.771 17.1675 108.795 17.703C108.819 18.2263 108.832 18.7374 108.832 19.2363H109.124C109.294 18.5548 109.519 17.9403 109.799 17.3927C110.079 16.8329 110.389 16.3643 110.73 15.9871C111.071 15.5977 111.436 15.2995 111.825 15.0926C112.215 14.8857 112.604 14.7823 112.994 14.7823C113.468 14.7823 113.851 14.8371 114.144 14.9466C114.448 15.0439 114.685 15.2021 114.855 15.4212C115.026 15.6403 115.141 15.9201 115.202 16.2609C115.263 16.6016 115.294 17.0093 115.294 17.4839ZM132.781 22.5951C132.781 22.7898 132.769 23.021 132.745 23.2888C132.72 23.5443 132.623 23.7938 132.453 24.0372C132.294 24.2684 132.039 24.4692 131.686 24.6396C131.333 24.8099 130.834 24.8951 130.189 24.8951H122.924V26.6475C122.924 26.9396 122.96 27.2438 123.033 27.5602C123.106 27.8767 123.228 28.1687 123.398 28.4364C123.581 28.7042 123.818 28.9232 124.11 29.0936C124.402 29.264 124.761 29.3492 125.187 29.3492C125.674 29.3492 126.045 29.2944 126.301 29.1849C126.569 29.0632 126.775 28.9171 126.921 28.7468C127.08 28.5764 127.22 28.3939 127.341 28.1991C127.463 28.0044 127.621 27.8219 127.816 27.6515C128.023 27.4811 128.303 27.3412 128.656 27.2317C129.021 27.11 129.52 27.0491 130.152 27.0491C130.457 27.0491 130.749 27.0735 131.029 27.1221C131.321 27.1708 131.576 27.2621 131.795 27.396C132.014 27.5298 132.191 27.7184 132.325 27.9618C132.459 28.1931 132.526 28.4973 132.526 28.8745C132.526 29.6656 132.276 30.3288 131.777 30.8643C131.278 31.3875 130.651 31.8074 129.897 32.1238C129.142 32.4402 128.321 32.6653 127.433 32.7992C126.556 32.9331 125.735 33 124.968 33C123.958 32.9878 122.997 32.8601 122.084 32.6167C121.171 32.3733 120.362 31.9838 119.656 31.4484C118.963 30.9129 118.409 30.2132 117.995 29.3492C117.581 28.4851 117.375 27.4264 117.375 26.1729V21.9014C117.375 20.7453 117.508 19.7657 117.776 18.9625C118.056 18.1593 118.415 17.49 118.853 16.9546C119.291 16.4191 119.784 16.0053 120.332 15.7133C120.879 15.409 121.433 15.1839 121.993 15.0379C122.553 14.8918 123.082 14.8006 123.581 14.764C124.092 14.7275 124.53 14.7093 124.895 14.7093C126.124 14.7093 127.171 14.8188 128.035 15.0379C128.911 15.2569 129.641 15.5429 130.225 15.8958C130.81 16.2487 131.272 16.6564 131.613 17.1188C131.954 17.5813 132.209 18.062 132.379 18.5609C132.55 19.0477 132.659 19.5467 132.708 20.0578C132.757 20.5567 132.781 21.0252 132.781 21.4633V22.5951ZM122.924 22.157H127.487C127.487 21.585 127.469 21.08 127.433 20.6419C127.408 20.1916 127.317 19.8144 127.159 19.5101C127.013 19.2059 126.775 18.9747 126.447 18.8165C126.13 18.6583 125.674 18.5792 125.078 18.5792C124.579 18.5792 124.183 18.6583 123.891 18.8165C123.611 18.9747 123.398 19.1755 123.252 19.4189C123.106 19.6501 123.015 19.8996 122.979 20.1673C122.942 20.435 122.924 20.6723 122.924 20.8792V22.157Z" fill="#361604"/>
<path d="M56.0769 37.3846C56.0769 37.3846 66.9808 42.5769 93.4615 42.5769C119.942 42.5769 129.808 37.3846 129.808 37.3846" stroke="#361604" stroke-width="4.15385" stroke-linecap="round" stroke-linejoin="round"/>
</svg>
