<svg width="140" height="140" viewBox="0 0 140 140" fill="none" xmlns="http://www.w3.org/2000/svg">
<g clip-path="url(#clip0)">
<path d="M79.6564 23.5348V80.8619C79.6564 84.8597 76.4129 88.1032 72.4151 88.1032H15.088C11.0902 88.1032 7.84668 84.8597 7.84668 80.8619V23.5348C7.84668 19.537 11.0902 16.2935 15.088 16.2935H72.4151C76.4129 16.2935 79.6564 19.537 79.6564 23.5348Z" fill="#FFAA64"/>
<path d="M140 48.5777V104.698C140 108.696 136.756 111.939 132.758 111.939H127.327C127.327 118.438 122.059 123.706 115.56 123.706C109.061 123.706 103.793 118.438 103.793 111.939H58.2332C58.2332 118.438 52.9652 123.706 46.4661 123.706C39.967 123.706 34.6989 118.438 34.6989 111.939C34.6989 118.438 29.4309 123.706 22.9318 123.706C16.4327 123.706 11.1647 118.438 11.1647 111.939H7.24229C3.24448 111.939 0.000976562 108.696 0.000976562 104.698V95.3446C0.000976562 91.3468 3.24448 88.1033 7.24229 88.1033H72.4141C76.4119 88.1033 79.6554 84.8598 79.6554 80.8619V48.5777C79.6554 44.5799 82.899 41.3364 86.8968 41.3364H132.758C136.756 41.3364 140 44.5799 140 48.5777Z" fill="#FE4F60"/>
<path d="M115.56 123.707C122.059 123.707 127.327 118.438 127.327 111.94C127.327 105.441 122.059 100.172 115.56 100.172C109.061 100.172 103.793 105.441 103.793 111.94C103.793 118.438 109.061 123.707 115.56 123.707Z" fill="#42434D"/>
<path d="M22.9322 123.707C29.431 123.707 34.6993 118.438 34.6993 111.94C34.6993 105.441 29.431 100.172 22.9322 100.172C16.4334 100.172 11.165 105.441 11.165 111.94C11.165 118.438 16.4334 123.707 22.9322 123.707Z" fill="#42434D"/>
<path d="M46.4664 123.707C52.9652 123.707 58.2335 118.438 58.2335 111.94C58.2335 105.441 52.9652 100.172 46.4664 100.172C39.9675 100.172 34.6992 105.441 34.6992 111.94C34.6992 118.438 39.9675 123.707 46.4664 123.707Z" fill="#42434D"/>
<path d="M79.6564 23.5348C79.6564 27.8672 76.1441 31.3795 71.8116 31.3795H42.2429C31.5783 31.3795 22.9328 40.0251 22.9328 50.6897V80.2584C22.9328 84.5908 19.4204 88.1032 15.088 88.1032C11.0887 88.1032 7.84668 84.8612 7.84668 80.8619V23.5348C7.84668 19.5355 11.0887 16.2935 15.088 16.2935H72.4151C76.4144 16.2935 79.6564 19.5355 79.6564 23.5348Z" fill="#FFBD7B"/>
<path d="M28.6647 74.5258H20.5183C19.1853 74.5258 18.1045 73.445 18.1045 72.112C18.1045 70.779 19.1853 69.6982 20.5183 69.6982H28.6647C29.9978 69.6982 31.0785 70.779 31.0785 72.112C31.0785 73.445 29.9978 74.5258 28.6647 74.5258Z" fill="white"/>
<path d="M54.9143 33.3256C54.9143 35.9929 52.754 38.1532 50.0868 38.1532H37.7162C35.049 38.1532 32.8887 35.9929 32.8887 33.3256V16.2935H54.9143V33.3256Z" fill="#E8F8FC"/>
<path d="M54.9147 31.3799V33.326C54.9147 35.9932 52.7544 38.1535 50.0872 38.1535H37.7166C35.2032 38.1535 33.1395 36.2346 32.9102 33.7816C35.6739 32.2488 38.8571 31.3799 42.2424 31.3799H54.9147Z" fill="#D6F4FC"/>
<path d="M132.827 49.4831H111.638C98.4742 49.4831 87.8023 60.155 87.8023 73.3191V89.0086C87.8023 93.0079 84.5603 96.2499 80.561 96.2499H15.3891C11.3898 96.2499 8.14781 99.4919 8.14781 103.491V104.767C8.14781 109.982 0.295812 110.307 0.0121939 105.099C-0.0056077 104.772 0.0013319 95.0524 0.0013319 95.3451C0.0013319 91.3457 3.24333 88.1037 7.24265 88.1037H72.4145C76.4138 88.1037 79.6558 84.8618 79.6558 80.8624V48.5782C79.6558 44.5789 82.8978 41.3369 86.8971 41.3369H132.759C138.462 41.3366 138.102 49.4831 132.827 49.4831Z" fill="#FF6D7A"/>
<path d="M140 48.5777V77.8447H106.584C101.044 77.8447 96.5518 73.3521 96.5518 67.8125V41.3364H132.758C136.756 41.3364 140 44.5799 140 48.5777Z" fill="#D6F4FC"/>
<path d="M30.2831 102.75C31.7139 103.896 30.8609 106.201 29.028 106.195C22.8179 106.173 17.1712 111.166 17.1999 118.024C17.2077 119.87 14.9089 120.742 13.7536 119.303C7.76476 111.848 12.7896 100.74 22.2311 100.193C25.2827 100.016 28.1008 101.002 30.2831 102.75Z" fill="#4D4E59"/>
<path d="M53.8173 102.75C55.2481 103.896 54.3951 106.201 52.5622 106.195C46.3521 106.173 40.7054 111.166 40.7341 118.024C40.7419 119.87 38.4431 120.742 37.2878 119.303C31.2989 111.848 36.3238 100.74 45.7653 100.193C48.8169 100.016 51.635 101.002 53.8173 102.75Z" fill="#4D4E59"/>
<path d="M122.911 102.75C124.342 103.896 123.489 106.201 121.656 106.195C115.446 106.173 109.799 111.166 109.828 118.024C109.836 119.87 107.537 120.742 106.382 119.303C100.393 111.848 105.418 100.74 114.859 100.193C117.911 100.016 120.729 101.002 122.911 102.75Z" fill="#4D4E59"/>
<path d="M132.828 49.4828H111.638C105.911 49.4828 100.661 51.5013 96.5518 54.8655V41.3363C133.108 41.3363 132.908 41.3275 133.16 41.3484C138.367 41.632 138.041 49.4828 132.828 49.4828Z" fill="#E8F8FC"/>
</g>
<defs>
<clipPath id="clip0">
<rect width="140" height="140" fill="white"/>
</clipPath>
</defs>
</svg>
