<svg width="90" height="90" viewBox="0 0 90 90" fill="none" xmlns="http://www.w3.org/2000/svg">
<circle cx="45.11" cy="44.735" r="43.525" fill="#F0F0F0" stroke="#DDDDDD" stroke-width="1.795"/>
<g clip-path="url(#clip0)">
<path d="M38.201 27.9155C37.8087 27.9155 37.4911 28.2335 37.4911 28.6255V30.1711C37.4911 30.563 37.8087 30.881 38.201 30.881C38.593 30.881 38.911 30.563 38.911 30.1711V28.6255C38.911 28.2335 38.593 27.9155 38.201 27.9155Z" fill="#383845"/>
<path d="M51.8214 30.1707V28.6255C51.8214 28.2335 51.5034 27.9155 51.1115 27.9155C50.7195 27.9155 50.4016 28.2335 50.4016 28.6255V30.1711C50.4016 30.563 50.7195 30.881 51.1115 30.881C51.5034 30.8806 51.8214 30.563 51.8214 30.1707Z" fill="#383845"/>
<path d="M48.1353 30.5693H41.1768C39.859 30.5693 38.7867 31.642 38.7867 32.9602C38.7867 34.2643 39.8741 35.3503 41.1768 35.3503H48.1353C49.4535 35.3503 50.5258 34.278 50.5258 32.9602C50.5258 31.6568 49.4383 30.5693 48.1353 30.5693ZM40.4905 33.6468C40.3093 33.4653 40.2066 33.2168 40.2066 32.9602C40.2066 32.4248 40.6418 31.9892 41.1768 31.9892H41.3698V33.9308C41.0378 33.9308 40.7379 33.8938 40.4905 33.6468ZM42.7897 31.9892H43.9463V33.9308H42.7897V31.9892ZM45.3662 31.9892H46.5228V33.9308H45.3662V31.9892ZM48.1353 33.9308H47.9426V31.9892C48.2758 31.9892 48.5749 32.0269 48.8227 32.2747C49.0053 32.457 49.1059 32.7003 49.1059 32.9602C49.1059 33.4952 48.6703 33.9308 48.1353 33.9308Z" fill="#383845"/>
<path d="M42.8311 47.6143C42.8311 49.2446 44.1574 50.5709 45.7876 50.5709C47.4179 50.5709 48.7442 49.2446 48.7442 47.6143C48.7442 45.984 47.4179 44.6577 45.7876 44.6577C44.1574 44.6577 42.8311 45.984 42.8311 47.6143ZM47.3244 47.6143C47.3244 48.4618 46.6351 49.151 45.7876 49.151C44.9405 49.151 44.2509 48.4614 44.2509 47.6143C44.2509 46.7668 44.9405 46.0776 45.7876 46.0776C46.6351 46.0776 47.3244 46.7668 47.3244 47.6143Z" fill="#383845"/>
<path d="M53.0778 50.5709C54.7081 50.5709 56.0344 49.2446 56.0344 47.6143C56.0344 45.984 54.7081 44.6577 53.0778 44.6577C51.4475 44.6577 50.1212 45.984 50.1212 47.6143C50.1212 49.2446 51.4475 50.5709 53.0778 50.5709ZM53.0778 46.0776C53.9253 46.0776 54.6145 46.7668 54.6145 47.6143C54.6145 48.4614 53.9253 49.151 53.0778 49.151C52.2307 49.151 51.5411 48.4614 51.5411 47.6143C51.5411 46.7668 52.2303 46.0776 53.0778 46.0776Z" fill="#383845"/>
<path d="M34.9997 44.6577C34.0501 44.6577 33.2781 45.4301 33.2781 46.3793V48.8489C33.2781 49.7985 34.0501 50.5709 34.9997 50.5709H39.5828C40.5324 50.5709 41.3044 49.7985 41.3044 48.8489V46.3793C41.3044 45.4298 40.532 44.6577 39.5828 44.6577H34.9997ZM39.8846 46.3793V48.8489C39.8846 49.0157 39.7492 49.151 39.5828 49.151H34.9997C34.8333 49.151 34.6979 49.0157 34.6979 48.8489V46.3793C34.6979 46.2129 34.8333 46.0776 34.9997 46.0776H39.5828C39.7492 46.0776 39.8846 46.2129 39.8846 46.3793V46.3793Z" fill="#383845"/>
<path d="M64.9988 47.1996C64.9988 46.7959 64.96 46.3939 64.8835 46.0046C64.8835 46.0042 64.8835 46.0035 64.8831 46.0027C64.8831 46.0024 64.8831 46.002 64.8827 46.0013C64.8827 46.0009 64.8827 46.0009 64.8827 46.0005C64.8827 45.9998 64.8824 45.9994 64.8824 45.9987C64.3532 43.2754 62.0859 41.248 59.3689 40.9748C59.1208 39.9713 58.3343 39.1778 57.3345 38.92V35.7904H58.6442C59.8274 35.7904 60.7899 34.8279 60.7899 33.6447V28.7258C60.7899 27.5426 59.8274 26.5801 58.6442 26.5801H57.3345V23.0153C57.3345 21.3847 56.0075 20.0576 54.3765 20.0576H41.4864C41.094 20.0576 40.7764 20.3756 40.7764 20.7676C40.7764 21.1595 41.094 21.4775 41.4864 21.4775H54.3765C55.2247 21.4775 55.9146 22.1675 55.9146 23.0153V38.8309H52.2773C51.885 38.8309 51.5674 39.1489 51.5674 39.5409C51.5674 39.9332 51.885 40.2508 52.2773 40.2508H56.6309C57.4033 40.2508 58.0319 40.8798 58.0319 41.6522V53.5761C58.0319 54.3485 57.4033 54.9771 56.6309 54.9771H32.6817C31.9089 54.9771 31.2803 54.3485 31.2803 53.5761V41.6522C31.2803 40.8798 31.9089 40.2508 32.6817 40.2508H49.4372C49.8296 40.2508 50.1472 39.9332 50.1472 39.5409C50.1472 39.1489 49.8296 38.8309 49.4372 38.8309H33.3979V23.0153C33.3979 22.1675 34.0879 21.4775 34.9361 21.4775H38.6462C39.0386 21.4775 39.3562 21.1595 39.3562 20.7676C39.3562 20.3756 39.0386 20.0576 38.6462 20.0576H34.9361C33.3051 20.0576 31.978 21.3847 31.978 23.0153V26.5801H30.6684C29.4851 26.5801 28.5227 27.5426 28.5227 28.7258V33.6447C28.5227 34.8279 29.4851 35.7904 30.6684 35.7904H31.978V38.92C30.9782 39.1778 30.1918 39.9713 29.9433 40.9748C27.2263 41.248 24.9593 43.2754 24.4302 45.9987C24.4302 45.9994 24.4298 45.9998 24.4298 46.0005V46.0016C24.4295 46.002 24.4295 46.0024 24.4295 46.0031C24.4295 46.0035 24.4295 46.0042 24.4291 46.0046C24.3525 46.3943 24.3137 46.7962 24.3137 47.2V55.1757C24.3137 57.0966 25.8763 58.6592 27.7972 58.6592C29.4452 58.6592 30.8288 57.5081 31.1886 55.9681C31.622 56.2395 32.1337 56.3974 32.6817 56.3974H34.4284V64.4237C33.9869 65.0918 33.7288 65.8916 33.7288 66.7509C33.7288 67.7278 34.5235 68.5228 35.5004 68.5228H40.4259C41.4028 68.5228 42.1978 67.7278 42.1978 66.7509C42.1978 65.892 41.94 65.0926 41.4986 64.424V56.3974H47.814V64.424C47.3725 65.0926 47.1148 65.892 47.1148 66.7509C47.1148 67.7278 47.9098 68.5224 48.8867 68.5224H53.8122C54.7891 68.5224 55.5837 67.7278 55.5837 66.7509C55.5837 65.8916 55.3256 65.0918 54.8841 64.4233V56.3974H56.6309C57.1788 56.3974 57.6906 56.2395 58.1239 55.9681C58.4837 57.5081 59.8674 58.6592 61.5154 58.6592C63.4362 58.6592 64.9988 57.0962 64.9988 55.1757V47.1996ZM58.6442 28C59.0443 28 59.37 28.3258 59.37 28.7258V33.6447C59.37 34.0452 59.0443 34.3705 58.6442 34.3705H57.3345V28H58.6442ZM59.4521 50.5711H63.579V52.7782H59.4517L59.4521 50.5711ZM63.579 47.1996V49.1512H59.4517V46.8476H63.5664C63.5745 46.9645 63.579 47.0821 63.579 47.1996ZM63.579 55.1753C63.579 56.3134 62.6531 57.2389 61.5154 57.2389C60.3776 57.2389 59.4521 56.3134 59.4521 55.1753V54.1984H63.579V55.1753ZM63.244 45.4278H59.4517V42.4142C61.1641 42.6679 62.6146 43.8264 63.244 45.4278ZM40.0787 63.0852C39.6117 62.8145 39.0888 62.6307 38.532 62.5557C38.1545 62.5046 37.7725 62.5035 37.395 62.5557C36.8378 62.6307 36.3149 62.8141 35.8479 63.0848V60.5752H40.0787V63.0852ZM40.4259 67.1026H35.5004C35.3066 67.1026 35.1487 66.9447 35.1487 66.7509C35.1487 65.2279 36.4414 63.9363 37.9629 63.9363C39.4952 63.9363 40.7775 65.219 40.7775 66.7509C40.7779 66.9447 40.62 67.1026 40.4259 67.1026ZM53.4643 63.0848C52.9976 62.8141 52.4748 62.6307 51.9179 62.5557C51.5408 62.5043 51.1577 62.5046 50.7809 62.5557C50.2237 62.6307 49.7009 62.8145 49.2339 63.0852V60.5752H53.4643V63.0848ZM53.8122 67.1026H48.8863C48.6926 67.1026 48.5347 66.9447 48.5347 66.7509C48.5347 65.2286 49.8281 63.9363 51.3493 63.9363C52.8815 63.9363 54.1638 65.219 54.1638 66.7509C54.1638 66.9447 54.006 67.1026 53.8122 67.1026ZM53.4643 56.397V59.1554H49.2339V56.397H53.4643ZM40.0787 56.397V59.1554H35.8479V56.397H40.0787ZM30.6684 34.3705C30.2679 34.3705 29.9425 34.0452 29.9425 33.6447V28.7258C29.9425 28.3254 30.2679 28 30.6684 28H31.978V34.3705H30.6684ZM25.7336 50.5711H29.8608V52.7782H25.7336V50.5711ZM29.8604 49.1512H25.7336C25.7336 49.1512 25.7377 46.9645 25.7462 46.8476H29.8604V49.1512ZM29.8604 55.1753C29.8604 56.3134 28.9349 57.2389 27.7972 57.2389H27.7968C26.6591 57.2389 25.7336 56.3134 25.7336 55.1753V54.1984H29.8604V55.1753ZM29.8604 42.4142V45.4278H26.0686C26.6975 43.8264 28.1485 42.6679 29.8604 42.4142Z" fill="#383845"/>
</g>
<defs>
<clipPath id="clip0">
<rect width="48.465" height="48.465" fill="white" transform="translate(20.4326 20.0576)"/>
</clipPath>
</defs>
</svg>
