<svg width="90" height="90" viewBox="0 0 90 90" fill="none" xmlns="http://www.w3.org/2000/svg">
<circle cx="45.235" cy="44.735" r="43.525" fill="#F0F0F0" stroke="#DDDDDD" stroke-width="1.795"/>
<g clip-path="url(#clip0)">
<path d="M35.6376 50.0986V51.4879C35.6376 51.8871 35.9615 52.211 36.3607 52.211C36.7599 52.211 37.0838 51.8871 37.0838 51.4879V50.0986C37.0838 49.699 36.7599 49.3755 36.3607 49.3755C35.9615 49.3755 35.6376 49.699 35.6376 50.0986Z" fill="#383845"/>
<path d="M50.991 50.0986V51.4879C50.991 51.8871 51.3145 52.211 51.714 52.211C52.1132 52.211 52.4371 51.8871 52.4371 51.4879V50.0986C52.4371 49.699 52.1132 49.3755 51.714 49.3755C51.3145 49.3755 50.991 49.699 50.991 50.0986Z" fill="#383845"/>
<path d="M45.3875 50.9158C45.0591 51.2913 44.5672 51.5067 44.0374 51.5067C43.5075 51.5067 43.0152 51.2913 42.6868 50.9158C42.424 50.6149 41.9675 50.5844 41.6666 50.8472C41.3661 51.1097 41.3352 51.5665 41.5981 51.8675C42.201 52.5574 43.0902 52.9528 44.0374 52.9528C44.9845 52.9528 45.8733 52.5574 46.4763 51.8675C46.7391 51.5669 46.7086 51.1101 46.4077 50.8472C46.1072 50.5844 45.6504 50.6149 45.3875 50.9158Z" fill="#383845"/>
<path d="M54.9484 45.9312C55.2749 45.4141 55.3133 44.7757 55.0512 44.2232L52.0101 37.8206C51.8143 37.412 51.3951 37.1479 50.9424 37.1479H45.1751C44.1974 37.1479 43.4024 37.943 43.4024 38.9206V44.9836C43.4024 45.9613 44.1974 46.7567 45.1751 46.7567H53.4499C54.0615 46.7567 54.6215 46.4479 54.9484 45.9312ZM44.8486 44.9836V38.9206C44.8486 38.7402 44.9951 38.5941 45.1751 38.5941H50.7763L53.7448 44.8439C53.8468 45.0589 53.686 45.3105 53.4499 45.3105H45.1751C44.9951 45.3105 44.8486 45.164 44.8486 44.9836Z" fill="#383845"/>
<path d="M40.5184 44.9836V38.9206C40.5184 37.943 39.723 37.1479 38.7457 37.1479H32.0527C31.5032 37.1479 31.0302 37.5212 30.9018 38.0571C30.9018 38.0571 29.3551 44.5693 29.3539 44.5742C29.0933 45.6717 29.9527 46.7567 31.0788 46.7567H38.7454C39.723 46.7567 40.5184 45.9613 40.5184 44.9836ZM30.8227 45.1862C30.7862 45.1399 30.7293 45.0424 30.7609 44.9083L32.2606 38.5941H38.7457C38.9257 38.5941 39.0722 38.7406 39.0722 38.9206V44.9836C39.0722 45.164 38.9257 45.3105 38.7457 45.3105H31.0788C30.9413 45.3105 30.8592 45.2326 30.8227 45.1862Z" fill="#383845"/>
<path d="M54.5006 58.3213C52.8601 58.3213 51.5258 59.656 51.5258 61.2965C51.5258 62.9366 52.8601 64.2713 54.5006 64.2713C56.1411 64.2713 57.4758 62.9366 57.4758 61.2965C57.4758 59.656 56.1411 58.3213 54.5006 58.3213ZM54.5006 62.8251C53.6577 62.8251 52.9719 62.1393 52.9719 61.2961C52.9719 60.4533 53.6577 59.7675 54.5006 59.7675C55.3438 59.7675 56.0296 60.4533 56.0296 61.2961C56.0296 62.1393 55.3438 62.8251 54.5006 62.8251Z" fill="#383845"/>
<path d="M36.88 58.3213C35.2395 58.3213 33.9048 59.656 33.9048 61.2965C33.9048 62.9366 35.2395 64.2713 36.88 64.2713C38.5205 64.2713 39.8548 62.9366 39.8548 61.2965C39.8548 59.656 38.5205 58.3213 36.88 58.3213ZM36.88 62.8251C36.0368 62.8251 35.351 62.1393 35.351 61.2961C35.351 60.4533 36.0368 59.7675 36.88 59.7675C37.7229 59.7675 38.4087 60.4533 38.4087 61.2961C38.4087 62.1393 37.7229 62.8251 36.88 62.8251Z" fill="#383845"/>
<path d="M46.491 28.3931C48.0121 28.3931 49.2496 27.1556 49.2496 25.6345C49.2496 24.113 48.0121 22.8755 46.491 22.8755C44.9699 22.8755 43.7324 24.113 43.7324 25.6345C43.7324 27.1556 44.9699 28.3931 46.491 28.3931ZM46.491 24.3217C47.2145 24.3217 47.8035 24.9103 47.8035 25.6341C47.8035 26.358 47.2145 26.9466 46.491 26.9466C45.7672 26.9466 45.1785 26.358 45.1785 25.6341C45.1785 24.9107 45.7672 24.3217 46.491 24.3217Z" fill="#383845"/>
<path d="M46.491 31.3368C49.6353 31.3368 52.1936 28.7789 52.1936 25.6346C52.1936 22.4899 49.6353 19.9316 46.491 19.9316C44.6968 19.9316 43.0258 20.7824 41.9604 22.1736C40.8946 20.7824 39.2236 19.9316 37.4298 19.9316C34.2852 19.9316 31.7273 22.4899 31.7273 25.6342C31.7273 28.7789 34.2852 31.3368 37.4298 31.3368C38.159 31.3368 38.8707 31.1997 39.5358 30.9346V33.8597H32.0527C29.9723 33.8597 28.1834 35.2734 27.7029 37.2981L25.8793 44.9744C25.7871 45.3631 26.0273 45.7529 26.416 45.8451C26.799 45.9359 27.1952 45.6922 27.2863 45.3085L29.1099 37.6321C29.4353 36.2624 30.6453 35.3058 32.0527 35.3058H50.9428C52.1043 35.3058 53.1769 35.9837 53.6747 37.0329L54.6091 39.0003C54.7805 39.3611 55.2117 39.5144 55.5725 39.343C55.9333 39.1717 56.0869 38.7405 55.9156 38.3797L54.9812 36.413C54.2453 34.8618 52.6598 33.8597 50.9428 33.8597H44.3846V30.9349C45.0497 31.1997 45.7619 31.3368 46.491 31.3368ZM40.9824 33.8597C40.9824 33.8597 40.9824 29.7403 40.9824 29.7313C40.9824 29.1585 40.3188 28.8109 39.8477 29.1366C39.1347 29.63 38.2987 29.8906 37.4298 29.8906C35.0828 29.8906 33.1734 27.9812 33.1734 25.6346C33.1734 23.2872 35.0828 21.3778 37.4298 21.3778C39.0914 21.3778 40.6114 22.3559 41.3025 23.8691C41.4204 24.1267 41.6772 24.2916 41.9604 24.2916C42.2436 24.2916 42.5005 24.1267 42.618 23.8691C43.309 22.3559 44.8294 21.3782 46.491 21.3782C48.838 21.3782 50.7474 23.2876 50.7474 25.6346C50.7474 27.9816 48.838 29.891 46.491 29.891C45.6222 29.891 44.7861 29.63 44.0728 29.1366C43.6013 28.8105 42.9385 29.1596 42.9385 29.7313V33.8597H40.9824Z" fill="#383845"/>
<path d="M37.4299 22.8755C35.9088 22.8755 34.6713 24.113 34.6713 25.6341C34.6713 27.1552 35.9088 28.3928 37.4299 28.3928C38.951 28.3928 40.1885 27.1552 40.1885 25.6341C40.1885 24.113 38.951 22.8755 37.4299 22.8755ZM37.4299 26.947C36.7061 26.947 36.1174 26.358 36.1174 25.6345C36.1174 24.9107 36.7061 24.3217 37.4299 24.3217C38.1537 24.3217 38.7424 24.9107 38.7424 25.6345C38.7424 26.358 38.1537 26.947 37.4299 26.947Z" fill="#383845"/>
<path d="M65.392 62.217H68.9712C69.9892 62.217 70.8174 61.3888 70.8174 60.3708V58.6859C70.8174 57.6743 69.9997 56.8515 68.9912 56.8405L66.825 48.7194C66.4856 47.4476 65.3295 46.5596 64.0132 46.5596H60.7258C60.164 46.5596 59.6454 46.2316 59.4043 45.7235L57.1232 40.9226C56.9519 40.5622 56.5207 40.4085 56.1599 40.5799C55.7991 40.7512 55.6458 41.1824 55.8172 41.5432L58.0979 46.3438C58.5769 47.3535 59.6085 48.0058 60.7258 48.0058H64.0132C64.6753 48.0058 65.2568 48.4524 65.4278 49.0923L65.6775 50.0281H64.3243C63.2736 50.0281 62.4183 50.883 62.4183 51.9341V53.4835C62.4183 54.5346 63.2736 55.3895 64.3243 55.3895H67.107L67.4938 56.8398H65.392C64.374 56.8398 63.5459 57.6679 63.5459 58.6859V59.258H60.6099C60.5937 59.2098 60.5763 59.1627 60.5594 59.1149C59.7094 56.7385 57.3387 54.9846 54.8052 54.8645C51.9803 54.7308 49.2827 56.5679 48.3916 59.258H42.9889C42.2033 56.8861 40.0525 55.156 37.568 54.8942C37.1112 54.846 36.6483 54.8464 36.1915 54.8942C33.7409 55.15 31.5453 56.9185 30.7707 59.258H28.7265V58.6859C28.7265 57.6679 27.8983 56.8398 26.8803 56.8398H24.5476L24.8922 55.3895H27.5616C28.6123 55.3895 29.4676 54.5346 29.4676 53.4835V51.9341C29.4676 50.8834 28.6123 50.0281 27.5616 50.0281H26.1655L26.6246 48.095C26.7169 47.7067 26.477 47.317 26.0883 47.2247C25.6997 47.1324 25.3099 47.3723 25.2176 47.761L23.057 56.8579C22.1543 56.9776 21.455 57.7508 21.455 58.6859V60.3708C21.455 61.3888 22.2831 62.217 23.3011 62.217H26.8803C27.7846 62.217 28.5374 61.5632 28.6948 60.7041H30.4686C30.4505 60.8992 30.44 61.0966 30.44 61.2962C30.44 64.8472 33.3289 67.7357 36.8796 67.7357C40.4306 67.7357 43.3192 64.8472 43.3192 61.2962C43.3192 61.0966 43.309 60.8992 43.2909 60.7041H48.0892C48.0715 60.8992 48.061 61.0966 48.061 61.2962C48.061 64.8472 50.9499 67.7357 54.5006 67.7357C58.0516 67.7357 60.9401 64.8472 60.9401 61.2962C60.9401 61.0966 60.9296 60.8992 60.9119 60.7041H63.5775C63.7349 61.5632 64.4881 62.217 65.392 62.217ZM27.5616 51.4743C27.8151 51.4743 28.0214 51.6803 28.0214 51.9338V53.4831C28.0214 53.7366 27.8151 53.9429 27.5616 53.9429H25.2361L25.8221 51.4743H27.5616ZM27.2803 60.3708C27.2803 60.5912 27.101 60.7708 26.8803 60.7708H23.3011C23.0804 60.7708 22.9011 60.5912 22.9011 60.3708V58.6859C22.9011 58.4652 23.0804 58.286 23.3011 58.286H26.8803C27.101 58.286 27.2803 58.4652 27.2803 58.6859V60.3708ZM36.88 66.2899C34.1266 66.2899 31.8865 64.0499 31.8865 61.2965C31.8865 58.6042 34.1899 56.3031 36.88 56.3031C39.5787 56.3031 41.8734 58.6019 41.8734 61.2965C41.8734 64.0495 39.6333 66.2899 36.88 66.2899ZM54.5006 66.2899C51.7472 66.2899 49.5072 64.0499 49.5072 61.2965C49.5072 58.6136 51.8195 56.3031 54.5006 56.3031C57.1986 56.3031 59.494 58.6019 59.494 61.2965C59.494 64.0495 57.2539 66.2899 54.5006 66.2899ZM69.3712 58.6859V60.3708C69.3712 60.5912 69.1919 60.7708 68.9712 60.7708H65.392C65.1713 60.7708 64.992 60.5912 64.992 60.3708V58.6859C64.992 58.4652 65.1713 58.286 65.392 58.286H68.435H68.4353H68.9709C69.1919 58.286 69.3712 58.4652 69.3712 58.6859ZM66.7214 53.9429H64.3243C64.0709 53.9429 63.8645 53.7366 63.8645 53.4831V51.9338C63.8645 51.6803 64.0709 51.4743 64.3243 51.4743H66.0631L66.7214 53.9429Z" fill="#383845"/>
</g>
<defs>
<clipPath id="clip0">
<rect width="49.3625" height="49.3625" fill="white" transform="translate(21.455 19.1602)"/>
</clipPath>
</defs>
</svg>
