<svg width="90" height="90" viewBox="0 0 90 90" fill="none" xmlns="http://www.w3.org/2000/svg">
<circle cx="45.1725" cy="44.735" r="43.525" fill="#F0F0F0" stroke="#DDDDDD" stroke-width="1.795"/>
<g clip-path="url(#clip0)">
<path d="M54.0103 37.501V36.0952C54.0103 35.6956 53.6864 35.3721 53.2872 35.3721C52.8876 35.3721 52.5641 35.6956 52.5641 36.0952V37.501C52.5641 37.9002 52.8876 38.2241 53.2872 38.2241C53.6864 38.2241 54.0103 37.9002 54.0103 37.501Z" fill="#383845"/>
<path d="M51.774 39.8246C51.774 40.2242 52.0976 40.5477 52.4971 40.5477H54.364C54.7632 40.5477 55.0871 40.2242 55.0871 39.8246C55.0871 39.4254 54.7632 39.1016 54.364 39.1016H52.4971C52.0976 39.1016 51.774 39.4254 51.774 39.8246Z" fill="#383845"/>
<path d="M37.7468 37.501V36.0952C37.7468 35.6956 37.4229 35.3721 37.0237 35.3721C36.6242 35.3721 36.3007 35.6956 36.3007 36.0952V37.501C36.3007 37.9002 36.6242 38.2241 37.0237 38.2241C37.4229 38.2241 37.7468 37.9002 37.7468 37.501Z" fill="#383845"/>
<path d="M35.224 39.8246C35.224 40.2242 35.5475 40.5477 35.9471 40.5477H37.8135C38.2131 40.5477 38.5366 40.2242 38.5366 39.8246C38.5366 39.4254 38.2131 39.1016 37.8135 39.1016H35.9471C35.5475 39.1016 35.224 39.4254 35.224 39.8246Z" fill="#383845"/>
<path d="M47.0856 39.5479C46.785 39.285 46.3282 39.3156 46.0653 39.6165C45.845 39.868 45.5136 40.0126 45.1555 40.0126C44.7973 40.0126 44.4655 39.868 44.2452 39.6165C43.9823 39.3156 43.5255 39.285 43.225 39.5479C42.9244 39.8108 42.8936 40.2676 43.1564 40.5681C43.6513 41.1342 44.38 41.4588 45.1555 41.4588C45.9309 41.4588 46.6596 41.1342 47.1541 40.5681C47.417 40.2672 47.3865 39.8108 47.0856 39.5479Z" fill="#383845"/>
<path d="M39.1294 41.1702C39.1294 44.493 41.8327 47.1963 45.1555 47.1963C48.4779 47.1963 51.1812 44.493 51.1812 41.1702C51.1812 37.8478 48.4779 35.1445 45.1555 35.1445C41.8327 35.1445 39.1294 37.8478 39.1294 41.1702ZM49.735 41.1702C49.735 43.6957 47.6806 45.7501 45.1555 45.7501C42.6303 45.7501 40.5756 43.6957 40.5756 41.1702C40.5756 39.4235 41.5593 37.9024 43.0013 37.1304C43.4355 37.8693 44.2366 38.3668 45.1555 38.3668C46.0744 38.3668 46.8754 37.8693 47.3093 37.1304C48.7513 37.9024 49.735 39.4235 49.735 41.1702Z" fill="#383845"/>
<path d="M29.5199 30.2715C28.5393 32.4303 27.9928 34.8258 27.9928 37.3472C27.9928 43.8139 31.5886 49.4562 36.8852 52.3813C36.3519 52.7508 35.8096 53.1526 35.247 53.5963C33.2333 55.1844 30.8023 56.9488 30.4057 59.6784C30.243 60.8071 30.5661 61.9046 31.3145 62.7685C32.1298 63.7093 33.3749 64.2768 34.6576 64.2987C34.8248 65.1618 35.1754 66.1384 35.7113 67.2366C36.3685 68.5833 37.6746 69.4201 39.12 69.4201C40.1349 69.4201 41.0912 69.0104 41.812 68.2658C41.9935 68.0786 42.1547 67.8734 42.2948 67.6546C43.2194 67.9367 44.1782 68.082 45.1555 68.082C46.1328 68.082 47.0916 67.9367 48.0158 67.6546C48.1563 67.8734 48.3175 68.0786 48.499 68.2658C49.2198 69.01 50.1756 69.4201 51.191 69.4201C52.636 69.4201 53.9421 68.5833 54.5993 67.2366C55.1355 66.1384 55.4862 65.1618 55.6534 64.2987C56.9357 64.2768 58.1808 63.7096 58.9961 62.7689C59.7448 61.9049 60.0676 60.8075 59.9053 59.6784C59.5117 56.9428 57.0803 55.1863 55.064 53.5963C54.5017 53.153 53.9598 52.7512 53.4269 52.3825C55.1363 51.4417 56.6917 50.2072 58.0121 48.7147C58.2768 48.4157 58.2489 47.9588 57.9495 47.6941C57.6505 47.4293 57.1937 47.4572 56.9289 47.7566C54.4151 50.5977 50.9737 52.4179 47.2622 52.921C45.6059 53.1458 43.9119 53.1029 42.2688 52.7967C34.9766 51.4372 29.439 45.027 29.439 37.3468C29.439 28.6808 36.489 21.6303 45.1555 21.6303C53.8216 21.6303 60.872 28.6808 60.872 37.3468C60.872 40.232 60.0834 43.0528 58.5917 45.5041C58.3841 45.8453 58.4926 46.2901 58.8338 46.498C59.175 46.7055 59.6198 46.597 59.8273 46.2558C61.4569 43.5782 62.3182 40.4975 62.3182 37.3468C62.3182 34.8258 61.7713 32.4299 60.791 30.2715C62.0436 29.1696 62.778 27.5739 62.778 25.8909C62.7776 22.6743 60.161 20.0576 56.9444 20.0576C55.299 20.0576 53.7734 20.7306 52.6722 21.9207C50.4009 20.8093 47.8497 20.1845 45.1555 20.1845C42.4609 20.1845 39.9097 20.8093 37.6384 21.9207C36.5372 20.7306 35.0116 20.0576 33.3662 20.0576C30.1496 20.0576 27.533 22.6743 27.533 25.8909C27.533 27.5739 28.267 29.17 29.5199 30.2715ZM51.9453 53.411C53.2664 55.2541 53.7869 57.612 53.3655 59.84C53.364 59.8498 53.3617 59.8592 53.3598 59.869C52.7155 59.6408 51.9434 59.5124 51.0324 59.4781C51.0998 59.0751 51.1352 58.6661 51.1352 58.2534C51.1352 56.6279 50.6182 55.1031 49.6902 53.9043C50.3982 53.7108 51.0946 53.4712 51.7773 53.185C51.8346 53.2592 51.8907 53.3345 51.9453 53.411ZM36.8069 57.9159C36.8822 56.2084 37.4916 54.5393 38.5332 53.1846C39.216 53.4709 39.9124 53.7104 40.6204 53.9043C39.6924 55.1027 39.1754 56.6279 39.1754 58.2534C39.1754 58.6661 39.2104 59.0751 39.2782 59.4777C38.3672 59.5124 37.5951 59.6408 36.9507 59.869C36.9782 59.8355 36.8912 59.5267 36.8856 59.4868C36.8099 58.9667 36.7839 58.4398 36.8069 57.9159ZM41.6572 60.2633C41.6561 60.2622 41.6549 60.2607 41.6527 60.2584C41.4105 60.0061 41.1164 59.7914 40.7887 59.657C40.6776 59.2005 40.6215 58.7302 40.6215 58.2534C40.6215 56.7198 41.2184 55.2537 42.2326 54.2625C43.0386 54.4007 43.8577 54.4813 44.687 54.5031C45.8217 54.5333 46.9594 54.4542 48.0783 54.2625C49.0921 55.2537 49.6891 56.7198 49.6891 58.2534C49.6891 58.7298 49.633 59.2002 49.5207 59.6574C49.1908 59.7926 48.8937 60.0038 48.6515 60.2656C47.9834 60.9845 47.7341 62.0206 47.623 62.6356C46.8871 63.1899 46.039 63.4818 45.1551 63.4818C44.2716 63.4818 43.4235 63.1899 42.6876 62.6356C42.5761 62.0198 42.3268 60.9826 41.6572 60.2633ZM32.4074 61.8213C32.0752 61.438 31.7065 60.7906 31.8368 59.8845C32.1253 57.8794 34.1616 56.2841 35.798 55.0021C35.8533 54.9588 35.9083 54.9159 35.9625 54.8733C35.9399 54.9347 35.92 54.9969 35.8985 55.059C35.6556 55.7569 35.4937 56.4773 35.4131 57.2117C35.288 58.349 35.3615 59.5037 35.6334 60.6154C35.4059 60.8162 35.2033 61.047 35.0425 61.3043C34.7627 61.752 34.6011 62.2661 34.5563 62.8495C33.724 62.8024 32.9309 62.4254 32.4074 61.8213ZM39.12 67.9739C38.232 67.9739 37.4241 67.4486 37.011 66.6024C36.4088 65.369 36.0736 64.3397 36.0028 63.5206C35.9347 62.7361 36.167 61.9294 36.8664 61.4982C37.2554 61.2598 37.7763 61.0934 38.4233 61.0011C38.9904 60.9197 39.7885 60.7812 40.3304 61.0542C40.7236 61.2523 40.9074 61.6794 41.049 62.0714C41.0493 62.0729 41.0501 62.0748 41.0509 62.0767C41.4143 63.1123 41.4572 64.2772 41.4922 65.3652V65.3938C41.5186 66.7217 40.4961 67.9739 39.12 67.9739ZM47.4611 66.3135C46.7146 66.5274 45.9418 66.6359 45.1555 66.6359C44.3691 66.6359 43.596 66.5274 42.8495 66.3135C42.8748 66.1964 42.8925 66.0777 42.9071 65.9587C42.9693 65.4541 42.9282 64.9396 42.8958 64.4342C43.6061 64.7589 44.3688 64.928 45.1555 64.928C45.9418 64.928 46.7045 64.7589 47.4147 64.4342C47.397 64.7125 47.3831 65.0059 47.3729 65.3189C47.3624 65.6507 47.3914 65.9885 47.4611 66.3135ZM53.2996 66.6024C52.8868 67.4486 52.0786 67.9739 51.191 67.9739C49.8058 67.9739 48.7758 66.7014 48.8184 65.3652C48.8696 63.7763 49.0323 62.7444 49.2594 62.0789C49.4605 61.4888 49.8352 60.9137 50.5251 60.9137C51.4907 60.9137 52.5983 60.9759 53.4438 61.4978C54.1296 61.9211 54.3744 62.7523 54.3081 63.5198C54.2373 64.3393 53.9018 65.3686 53.2996 66.6024ZM54.513 55.0021C56.149 56.2841 58.1857 57.8794 58.4738 59.8845C58.6041 60.7909 58.2354 61.4383 57.9032 61.8217C57.3797 62.4258 56.587 62.8024 55.7547 62.8495C55.7099 62.2661 55.5479 61.752 55.2685 61.3039C55.1178 61.0629 54.9329 60.8489 54.7232 60.6572C54.7081 60.6433 54.693 60.629 54.6776 60.6154C54.7175 60.452 54.7525 60.2874 54.7838 60.1225C55.1167 58.3765 54.9657 56.5402 54.3484 54.8733C54.4027 54.9159 54.4577 54.9588 54.513 55.0021ZM58.3002 26.3134C57.7616 25.6728 57.1767 25.0714 56.5512 24.5151C56.7512 24.389 56.9851 24.32 57.231 24.32C57.9394 24.32 58.5156 24.8959 58.5156 25.6043C58.5156 25.8604 58.438 26.1063 58.3002 26.3134ZM56.9444 21.5038C59.3633 21.5038 61.3315 23.4719 61.3315 25.8909C61.3315 27.029 60.8859 28.1151 60.1105 28.9252C59.8318 28.4318 59.5275 27.9532 59.201 27.4903C59.6812 26.9887 59.9617 26.3157 59.9617 25.6039C59.9617 24.0986 58.7366 22.8735 57.2314 22.8735C56.5504 22.8735 55.8989 23.1352 55.4026 23.5838C54.9506 23.2456 54.4821 22.9292 53.9993 22.6377C54.7989 21.9094 55.8357 21.5038 56.9444 21.5038ZM32.0108 26.3134C31.8726 26.1063 31.7954 25.8604 31.7954 25.6043C31.7954 24.8959 32.3712 24.32 33.0796 24.32C33.3259 24.32 33.5594 24.389 33.7598 24.5151C33.1342 25.071 32.549 25.6724 32.0108 26.3134ZM33.3662 21.5038C34.4749 21.5038 35.5121 21.9094 36.3116 22.6377C35.8285 22.9292 35.3603 23.2456 34.9084 23.5838C34.4117 23.1352 33.7601 22.8739 33.0796 22.8739C31.5739 22.8739 30.3492 24.0986 30.3492 25.6043C30.3492 26.3157 30.6294 26.9887 31.1096 27.4903C30.7831 27.9532 30.4788 28.4318 30.2001 28.9252C29.4247 28.1147 28.9791 27.0286 28.9791 25.8909C28.9791 23.4719 30.9473 21.5038 33.3662 21.5038Z" fill="#383845"/>
</g>
<defs>
<clipPath id="clip0">
<rect width="49.3625" height="49.3625" fill="white" transform="translate(20.495 20.0576)"/>
</clipPath>
</defs>
</svg>
