<svg width="90" height="90" viewBox="0 0 90 90" fill="none" xmlns="http://www.w3.org/2000/svg">
<circle cx="45.2" cy="44.735" r="43.525" fill="#F0F0F0" stroke="#DDDDDD" stroke-width="1.795"/>
<g clip-path="url(#clip0)">
<path d="M53.8085 42.0877C54.2077 42.0877 54.5316 41.7638 54.5316 41.3646V24.1552C54.5316 23.756 54.2077 23.4321 53.8085 23.4321H36.5991C36.1995 23.4321 35.876 23.756 35.876 24.1552V41.3646C35.876 41.7638 36.1995 42.0877 36.5991 42.0877H53.8085ZM37.3222 24.8783H53.0854V40.6415H37.3222V24.8783Z" fill="#383845"/>
<path d="M46.0081 27.4951C45.85 27.4951 45.7208 27.5527 45.6202 27.639L43.9251 28.9315C43.6954 29.0754 43.5662 29.3484 43.5662 29.6067C43.5662 29.9803 43.8103 30.3539 44.1695 30.3539C44.2701 30.3539 44.3993 30.3253 44.5141 30.2248L44.974 29.7649V37.436C44.974 37.8239 45.4338 38.025 45.9076 38.025C46.3674 38.025 46.8416 37.8239 46.8416 37.436V28.0984C46.8412 27.7248 46.396 27.4951 46.0081 27.4951Z" fill="#383845"/>
<path d="M24.6201 66.0457H41.8294C42.2286 66.0457 42.5525 65.7218 42.5525 65.3226V48.1132C42.5525 47.714 42.2286 47.3901 41.8294 47.3901H24.6201C24.2205 47.3901 23.897 47.714 23.897 48.1132V65.3226C23.897 65.7218 24.2209 66.0457 24.6201 66.0457ZM25.3431 48.8363H41.1064V64.5995H25.3431V48.8363Z" fill="#383845"/>
<path d="M35.8966 60.3307H31.9027V59.9861C31.9027 58.4921 36.4566 57.4866 36.4566 54.3833C36.4566 52.5591 34.9054 51.4673 33.2389 51.4673C31.6444 51.4673 30.1504 52.4728 30.1504 54.1107C30.1504 54.8865 30.5096 55.1162 30.9977 55.1162C31.6157 55.1162 31.9746 54.7716 31.9746 54.4267C31.9746 53.536 32.5493 53.1624 33.2532 53.1624C34.2015 53.1624 34.589 53.852 34.589 54.441C34.589 56.4667 29.9636 57.6877 29.9636 59.9861V61.3796C29.9636 61.7388 30.452 61.9686 30.7823 61.9686H35.8966C36.2126 61.9686 36.4852 61.5664 36.4852 61.1355C36.4852 60.7047 36.2126 60.3307 35.8966 60.3307Z" fill="#383845"/>
<path d="M47.8551 48.1132V65.3226C47.8551 65.7218 48.1786 66.0457 48.5782 66.0457H65.7876C66.1868 66.0457 66.5107 65.7218 66.5107 65.3226V61.9023C66.5107 61.5031 66.1868 61.1792 65.7876 61.1792C65.3884 61.1792 65.0645 61.5031 65.0645 61.9023V64.5995H49.3013V48.8363H65.0645V59.0099C65.0645 59.4091 65.3884 59.733 65.7876 59.733C66.1868 59.733 66.5107 59.4091 66.5107 59.0099V48.1132C66.5107 47.714 66.1868 47.3901 65.7876 47.3901H48.5782C48.179 47.3901 47.8551 47.714 47.8551 48.1132Z" fill="#383845"/>
<path d="M57.1542 60.374C56.2345 60.374 55.6602 59.9718 55.6602 59.3251C55.6602 58.8657 55.4591 58.6646 54.6976 58.6646C54.0514 58.6646 53.8069 58.8224 53.8069 59.3971C53.8069 60.5608 54.7552 62.0115 57.1113 62.0115C59.0075 62.0115 60.5587 61.1351 60.5587 58.8224V58.5493C60.5587 57.3574 59.9411 56.7107 59.0937 56.3805C59.7976 56.0498 60.2141 55.1305 60.2141 53.9958C60.2141 52.0853 58.9213 51.4243 57.1832 51.4243C54.7552 51.4243 54.0371 52.904 54.0371 53.9239C54.0371 54.5272 54.1662 54.7283 54.9993 54.7283C55.6888 54.7283 55.89 54.4409 55.89 54.0101C55.89 53.4354 56.2349 53.0475 57.1685 53.0475C57.9443 53.0475 58.4328 53.3638 58.4328 54.3118C58.4328 55.547 57.8295 55.7195 57.1113 55.7195C56.6944 55.7195 56.5509 56.0931 56.5509 56.4524C56.5509 56.826 56.6944 57.1849 57.1113 57.1849C58.0306 57.1849 58.6915 57.4865 58.6915 58.5497V58.8224C58.6911 59.9141 58.2317 60.374 57.1542 60.374Z" fill="#383845"/>
<path d="M24.4302 69.4201H42.0193C43.3321 69.4201 44.4951 68.7686 45.2038 67.7725C45.913 68.7686 47.0756 69.4201 48.3884 69.4201H65.977C68.132 69.4201 69.8851 67.667 69.8851 65.5125V47.9234C69.8851 45.7689 68.132 44.0158 65.977 44.0158H57.03C57.5772 43.3432 57.906 42.4864 57.906 41.5543V23.9653C57.906 21.8107 56.1529 20.0576 53.9983 20.0576H36.4093C34.2548 20.0576 32.5017 21.8107 32.5017 23.9653V27.5799C32.5017 27.9791 32.8252 28.303 33.2247 28.303C33.624 28.303 33.9478 27.9791 33.9478 27.5799V23.9653C33.9478 22.608 35.052 21.5038 36.4093 21.5038H53.9983C55.3556 21.5038 56.4598 22.608 56.4598 23.9653V41.5543C56.4598 42.9116 55.3556 44.0158 53.9983 44.0158H48.3884C47.5369 44.0158 46.6941 44.3028 46.0181 44.8198C45.7175 45.0496 45.4498 45.3264 45.2264 45.6314C45.2193 45.6412 45.211 45.651 45.2038 45.6616C45.1967 45.6514 45.1884 45.6416 45.1809 45.6314C44.9572 45.3252 44.6909 45.0507 44.3896 44.8198C43.7125 44.3016 42.8719 44.0158 42.0189 44.0158H36.4093C35.052 44.0158 33.9478 42.9116 33.9478 41.5543V30.4723C33.9478 30.0731 33.624 29.7492 33.2247 29.7492C32.8252 29.7492 32.5017 30.0731 32.5017 30.4723V41.5539C32.5017 42.4864 32.8301 43.3432 33.3773 44.0158H24.4302C22.2757 44.0158 20.5226 45.7689 20.5226 47.9234V65.5125C20.5226 67.667 22.2757 69.4201 24.4302 69.4201ZM53.9983 45.462H65.9774C67.3347 45.462 68.4389 46.5662 68.4389 47.9234V65.5125C68.4389 66.8697 67.3347 67.9739 65.9774 67.9739H48.3884C47.0311 67.9739 45.9269 66.8697 45.9269 65.5125V47.9234C45.9269 46.5963 47.0616 45.462 48.3884 45.462H53.9983ZM21.9688 47.9234C21.9688 46.5662 23.073 45.462 24.4302 45.462H36.4093H42.0193C43.3483 45.462 44.4807 46.5948 44.4807 47.9234V65.5125C44.4807 66.8697 43.3765 67.9739 42.0193 67.9739H24.4302C23.073 67.9739 21.9688 66.8697 21.9688 65.5125V47.9234Z" fill="#383845"/>
</g>
<defs>
<clipPath id="clip0">
<rect width="49.3625" height="49.3625" fill="white" transform="translate(20.5226 20.0576)"/>
</clipPath>
</defs>
</svg>
