<svg width="90" height="90" viewBox="0 0 90 90" fill="none" xmlns="http://www.w3.org/2000/svg">
<circle cx="44.61" cy="44.735" r="43.525" fill="#F0F0F0" stroke="#DDDDDD" stroke-width="1.795"/>
<path d="M52.5748 58.9704C52.5748 60.3383 53.6876 61.4511 55.0555 61.4511C56.4233 61.4511 57.5362 60.3383 57.5362 58.9704C57.5362 57.6026 56.4233 56.4897 55.0555 56.4897C53.6876 56.4897 52.5748 57.6026 52.5748 58.9704V58.9704ZM56.0893 58.9704C56.0893 59.5406 55.6253 60.0046 55.0551 60.0046C54.4853 60.0046 54.0213 59.5406 54.0213 58.9704C54.0213 58.4006 54.4853 57.9367 55.0551 57.9367C55.6253 57.9367 56.0893 58.4006 56.0893 58.9704V58.9704Z" fill="#383845"/>
<path d="M60.5351 46.1189C61.0665 44.9658 61.3738 43.755 61.4571 42.5355L61.5524 42.479C61.5524 42.479 62.8724 48.371 62.8727 48.3729C63.2595 50.0982 65.0842 51.2073 66.794 50.8073C68.7632 50.3467 69.8482 48.0758 69.008 46.25C69.0065 46.2462 69.0046 46.2428 69.0031 46.2395L68.2247 44.617C68.0518 44.257 67.6199 44.1049 67.2598 44.2777C66.8994 44.4506 66.7476 44.8825 66.9205 45.243L67.6963 46.8597C68.1644 47.8845 67.5713 49.1397 66.4644 49.3988C65.4894 49.6267 64.5098 49.0188 64.2831 48.0502L62.8622 41.7066L64.2146 40.9086C64.3758 40.8126 64.5287 40.7026 64.671 40.5802C64.6737 40.5776 64.6771 40.5757 64.6801 40.573L65.6962 42.6911C65.869 43.0511 66.301 43.2033 66.661 43.0304C67.0214 42.8575 67.1732 42.4256 67.0003 42.0652L65.6276 39.2045C65.8905 38.4968 65.9165 37.7014 65.6562 36.9508C65.3956 36.1999 64.8853 35.5868 64.2368 35.1925L62.5327 27.585C62.5319 27.5813 62.5312 27.5775 62.53 27.5737C62.0578 25.6116 59.8079 24.5051 57.9693 25.3664C56.3398 26.1294 55.6347 28.0761 56.4008 29.7121L59.0106 35.1514L58.9044 35.1657C56.9649 33.0048 54.1279 31.684 51.1004 31.684C50.4703 31.684 49.8407 31.7424 49.2223 31.8561C47.1758 29.5487 44.2654 28.2328 41.1678 28.2328C38.2589 28.2328 35.5326 29.3754 33.4918 31.4498C33.2116 31.7345 33.2154 32.1924 33.5001 32.4726C33.7852 32.7528 34.2431 32.7494 34.523 32.4643C36.29 30.6687 38.6498 29.6797 41.1678 29.6797C43.853 29.6797 46.3763 30.8208 48.1486 32.824C48.2906 32.9848 47.4255 34.243 47.3332 34.3786C45.6882 36.7964 43.0128 38.4776 40.3811 39.6364C40.3735 39.6394 40.366 39.6428 40.3585 39.6462C36.1699 41.4859 33.0979 41.1824 32.06 40.9941C31.918 40.3418 31.8461 39.6733 31.8461 39.0015C31.8461 37.4894 32.2166 35.9875 32.9182 34.6577C33.1047 34.3044 32.9695 33.8668 32.6162 33.6804C32.263 33.494 31.8253 33.6292 31.6389 33.9828C30.8281 35.5194 30.3991 37.2548 30.3991 39.0015C30.3991 39.7709 30.4824 40.5361 30.6439 41.2841C28.968 42.4308 25.5515 45.0746 25.4426 45.1737C24.848 44.4664 23.9769 44.0608 23.0515 44.0608C22.394 44.0608 21.7636 44.2642 21.2273 44.6498C20.4164 45.2347 19.9325 46.1811 19.9325 47.181C19.9325 47.5308 19.9905 47.8751 20.105 48.2031L20.4379 49.1634C21.4084 51.9627 23.6319 54.074 26.3487 54.9564L26.1442 56.8048C24.7708 57.4454 23.8157 58.8388 23.8157 60.4518C23.8157 62.6697 25.6204 64.4743 27.8382 64.4743C30.0564 64.4743 31.8607 62.6697 31.8607 60.4518C31.8607 59.1555 31.2439 58.0009 30.2888 57.265L30.4944 55.4034C31.1614 55.3989 31.8242 55.388 32.4776 55.3725C32.8832 55.9145 33.3943 56.3905 34.0021 56.7671C34.8762 57.3098 35.8799 57.5964 36.9042 57.5964C38.8434 57.5964 40.6624 56.5615 41.651 54.8961L41.7689 54.6973C45.0472 54.277 48.0827 53.6733 50.9588 52.8677L51.5441 54.7357C50.3276 55.7461 49.5514 57.2691 49.5514 58.9706C49.5514 62.0053 52.0205 64.4743 55.0555 64.4743C58.0902 64.4743 60.5592 62.0053 60.5592 58.9706C60.5592 56.0934 58.3395 53.726 55.5229 53.4876L54.9218 51.5699C57.3939 50.5011 59.414 48.5499 60.5351 46.1189V46.1189ZM64.169 38.9254C64.0123 39.2267 63.777 39.4869 63.4761 39.6647L61.4315 40.8709C61.2759 39.3201 60.7491 37.8046 59.9149 36.4884L62.26 36.1705C63.1296 36.0526 64.0007 36.5931 64.2892 37.425C64.4616 37.9225 64.4055 38.4704 64.169 38.9254V38.9254ZM60.5171 34.9469L57.708 29.0922C57.2832 28.185 57.6756 27.1011 58.5828 26.6763C59.6117 26.1942 60.8549 26.8085 61.1223 27.907L62.6464 34.7108C62.6355 34.6664 62.0954 34.733 62.0698 34.7364C62.0694 34.7364 60.5171 34.9469 60.5171 34.9469ZM27.8386 63.0274C26.418 63.0274 25.2626 61.872 25.2626 60.4518C25.2626 59.0554 26.4429 57.8758 27.8386 57.8758C29.2414 57.8758 30.4142 59.0508 30.4142 60.4518C30.4142 61.872 29.2588 63.0274 27.8386 63.0274ZM28.4009 56.4696C28.1493 56.4346 27.8947 56.4218 27.6409 56.4342L27.7667 55.2957C27.9474 55.3243 28.1297 55.3458 28.3127 55.3635C28.5538 55.3868 28.7967 55.4027 29.0388 55.4072L28.9097 56.5743C28.9036 56.5728 28.5666 56.4929 28.4009 56.4696V56.4696ZM36.9042 56.1314C36.1669 56.137 35.4234 55.9465 34.7647 55.5379C33.1698 54.5481 32.4501 52.519 33.0681 50.7433L33.8198 48.5853C34.0744 47.8543 34.7252 47.3034 35.4875 47.1719C35.4875 47.1719 45.0314 45.528 45.0544 45.5243C45.2611 45.4885 45.4159 45.7175 45.3101 45.8956L40.4071 54.1572C39.6614 55.414 38.2928 56.1205 36.9042 56.1314ZM46.5544 46.6341C46.8692 46.1035 46.8756 45.467 46.571 44.9323C46.2211 44.318 45.5063 43.9783 44.8088 44.0985C44.8088 44.0985 35.2434 45.7457 35.2419 45.7461C33.9694 45.9653 32.8783 46.8899 32.4535 48.1093C32.1771 48.9028 31.875 49.6918 31.628 50.4951C31.2762 51.6592 31.3226 52.8613 31.709 53.9418C31.0932 53.9523 30.4707 53.9576 29.8455 53.9588C28.9876 53.9603 28.141 53.9256 27.3038 53.7256C24.7798 53.0922 22.6844 51.2257 21.805 48.6893C21.805 48.6893 21.4713 47.7282 21.4713 47.7278C21.2322 47.0382 21.4815 46.2504 22.0727 45.8229C22.7744 45.3168 23.778 45.4414 24.3339 46.1035C24.8619 46.7317 25.8362 46.7878 26.435 46.2282C26.5126 46.1558 29.9058 43.535 31.6016 42.38C31.7617 42.4146 31.9741 42.4538 32.2347 42.4892C35.5609 42.9393 39.098 41.9831 42.0351 40.4544C42.037 40.4533 42.0385 40.4525 42.0404 40.4518C45.0996 38.9442 48.4137 36.6706 49.5303 33.2691C50.0474 33.1769 50.5739 33.1306 51.1004 33.1306C54.7505 33.1306 58.0778 35.3518 59.4098 38.6655C60.2847 40.8431 60.2083 43.3724 59.2212 45.5134C57.6899 48.8343 54.5622 50.3068 51.2341 51.2826C51.2247 51.2856 51.2157 51.2894 51.2062 51.2924C48.5384 52.075 45.7308 52.6757 42.7108 53.1103L46.5544 46.6341ZM52.8117 53.9437L52.347 52.4591C52.5952 52.3834 52.8422 52.3043 53.0889 52.2245C53.2471 52.1733 53.4049 52.122 53.5623 52.0697L54.03 53.5629C54.0248 53.5641 54.0191 53.5656 54.0135 53.5667C53.6015 53.6469 53.1955 53.7723 52.8117 53.9437V53.9437ZM59.1123 58.9702C59.1123 61.2077 57.2926 63.0274 55.0552 63.0274C52.8181 63.0274 50.998 61.2077 50.998 58.9702C50.998 56.8115 52.8953 54.9131 55.0552 54.9131C57.2926 54.9131 59.1123 56.7332 59.1123 58.9702V58.9702Z" fill="#383845"/>
</svg>
