<svg width="90" height="90" viewBox="0 0 90 90" fill="none" xmlns="http://www.w3.org/2000/svg">
<circle cx="44.735" cy="44.735" r="43.525" fill="#F0F0F0" stroke="#DDDDDD" stroke-width="1.795"/>
<g clip-path="url(#clip0)">
<path d="M37.594 59.3311V57.974C37.594 57.5676 37.2642 57.2378 36.8578 57.2378C36.4509 57.2378 36.1212 57.5676 36.1212 57.974V59.3311C36.1212 59.7375 36.4509 60.0673 36.8578 60.0673C37.2642 60.0673 37.594 59.7375 37.594 59.3311Z" fill="#383845"/>
<path d="M52.5872 59.3311V57.974C52.5872 57.5676 52.2574 57.2378 51.8509 57.2378C51.4441 57.2378 51.1147 57.5676 51.1147 57.974V59.3311C51.1147 59.7375 51.4441 60.0673 51.8509 60.0673C52.2574 60.0673 52.5872 59.7375 52.5872 59.3311Z" fill="#383845"/>
<path d="M44.3543 60.7919C45.288 60.7919 46.1642 60.4015 46.759 59.7213C47.0266 59.4153 46.9952 58.9502 46.6892 58.6825C46.3828 58.4149 45.9177 58.4459 45.65 58.7523C45.3352 59.1124 44.8628 59.3191 44.3543 59.3191C43.8455 59.3191 43.3734 59.1124 43.0582 58.7523C42.7906 58.4459 42.3255 58.4149 42.0195 58.6825C41.7131 58.9502 41.682 59.4153 41.9497 59.7213C42.544 60.4015 43.4206 60.7919 44.3543 60.7919Z" fill="#383845"/>
<path d="M55.6104 28.0189C57.2953 28.7482 59.3264 28.2436 60.4749 26.8106C61.1241 26.0004 60.82 24.7584 59.8679 24.3466C59.8679 24.3466 55.3776 22.4032 55.3742 22.4013C54.422 21.9895 53.3077 22.6218 53.162 23.6456C52.9005 25.4835 53.9071 27.2819 55.6104 28.0189ZM54.6199 23.8534C54.6314 23.7744 54.7142 23.7208 54.789 23.753C54.789 23.753 59.2689 25.6921 59.2831 25.6978C59.359 25.7308 59.3755 25.8275 59.3257 25.89C58.5875 26.8103 57.2776 27.1358 56.1955 26.6676C55.0996 26.1933 54.4516 25.036 54.6199 23.8534Z" fill="#383845"/>
<path d="M32.0489 65.012L31.4392 61.7703C31.3636 61.3707 30.979 61.1077 30.5791 61.1829C30.1795 61.258 29.9165 61.643 29.9916 62.0426L30.6009 65.2789C31.0239 67.6214 33.0585 69.3217 35.439 69.3217H53.2693C55.6498 69.3217 57.6848 67.6214 58.1066 65.2843L60.6937 51.5351C60.7689 51.1356 60.5059 50.7506 60.1063 50.6754C59.7064 50.6003 59.3217 50.8633 59.2466 51.2629L56.6586 65.0174C56.3622 66.6582 54.9369 67.8492 53.2693 67.8492H35.439C33.7717 67.8492 32.3464 66.6582 32.0489 65.012Z" fill="#383845"/>
<path d="M27.0418 34.5478C25.5644 34.5478 24.3626 35.7495 24.3626 37.227V40.4396C24.3626 41.7019 25.2403 42.7625 26.4172 43.0448L29.4376 59.0974C29.5044 59.4513 29.8134 59.6978 30.1605 59.6978C30.2057 59.6978 30.2517 59.6936 30.2973 59.6852C30.6973 59.6096 30.9603 59.225 30.8848 58.8251L27.9299 43.1192H28.8609L31.4324 49.1478C32.2081 50.9666 33.9869 52.1419 35.964 52.1419H37.5144C37.8472 52.7297 38.4772 53.1281 39.1993 53.1281H49.5092C50.2316 53.1281 50.8617 52.7297 51.1941 52.1419H52.7448C54.7219 52.1419 56.5008 50.9666 57.2765 49.1478L59.8479 43.1192H60.779L59.7843 48.4066C59.7087 48.8062 59.9718 49.1912 60.3717 49.2663C60.7717 49.3419 61.1563 49.0784 61.2314 48.6789L62.2917 43.0448C63.4685 42.7625 64.3462 41.7019 64.3462 40.4396V37.227C64.3462 35.7495 63.1441 34.5478 61.6667 34.5478H55.6111L57.0671 31.1833C57.1572 31.1868 57.247 31.1903 57.3378 31.1903C60.1984 31.1903 62.781 29.4938 63.9172 26.8687C64.6791 25.1079 63.8416 23.0031 62.0862 22.2431C62.0862 22.2431 55.3926 19.3465 55.3891 19.3449C53.6279 18.5826 51.525 19.4166 50.7635 21.1759C49.5575 23.9629 50.2685 27.1038 52.3073 29.1211L49.9586 34.5478H27.0418ZM52.1152 21.7607C52.5569 20.7396 53.7844 20.2553 54.804 20.6962C54.804 20.6962 61.4937 23.5917 61.501 23.5948C62.5229 24.0369 63.008 25.2617 62.5655 26.2836C61.1118 29.6426 56.7216 30.7669 53.8346 28.5087C51.8425 26.9519 51.0649 24.1872 52.1152 21.7607ZM53.4998 30.0732C53.5025 30.0748 53.5056 30.0763 53.5079 30.0778C54.1444 30.4736 54.8316 30.7765 55.5575 30.964L54.0064 34.5478H51.5634L53.4998 30.0732ZM32.7867 48.57L30.4618 43.1192H31.9734L34.0659 48.0243C34.3911 48.7862 35.1358 49.2782 35.964 49.2782H37.2636V50.669H35.964C34.5779 50.669 33.3309 49.845 32.7867 48.57ZM51.1941 47.8057C50.8617 47.2179 50.2316 46.8195 49.5092 46.8195H39.1993C38.4772 46.8195 37.8472 47.2179 37.5144 47.8057H35.964C35.7271 47.8057 35.5139 47.6646 35.4207 47.4468L33.5747 43.1192H55.1341L53.2882 47.4464C53.195 47.6646 52.9818 47.8057 52.7448 47.8057H51.1941ZM49.5092 51.6553C49.5092 51.6553 39.2131 51.6553 39.1993 51.6553C38.9496 51.6553 38.7364 51.4421 38.7364 51.1924V48.7548C38.7364 48.5029 38.9477 48.292 39.1993 48.292H49.5092C49.7596 48.292 49.9709 48.5052 49.972 48.7548V51.1932C49.9713 51.4451 49.7608 51.6553 49.5092 51.6553ZM55.9217 48.57C55.378 49.845 54.1306 50.669 52.7444 50.669H51.4449V49.2782H52.7444C53.5727 49.2782 54.3177 48.7862 54.6425 48.0243L56.735 43.1192H58.247L55.9217 48.57ZM62.8734 37.227V40.4396C62.8734 41.1049 62.3323 41.6463 61.6667 41.6463H27.0418C26.3765 41.6463 25.8351 41.1049 25.8351 40.4396V37.227C25.8351 36.5617 26.3765 36.0203 27.0418 36.0203H61.6667C62.3323 36.0203 62.8734 36.5617 62.8734 37.227Z" fill="#383845"/>
</g>
<defs>
<clipPath id="clip0">
<rect width="50.26" height="50.26" fill="white" transform="translate(19.1599 19.1602)"/>
</clipPath>
</defs>
</svg>
